<svg xmlns="http://www.w3.org/2000/svg" viewBox="0 0 64 64" width="64" height="64">
  <rect width="64" height="64" rx="13" fill="#0D0D0E"/>
  <g transform="translate(10,11) scale(1.9)">
    <g fill="none" stroke="#E9B93C" stroke-width="1.8" stroke-linecap="round" stroke-linejoin="round">
      <path d="M14 18V6a2 2 0 0 0-2-2H4a2 2 0 0 0-2 2v11a1 1 0 0 0 1 1h2"/>
      <path d="M15 18H9"/>
      <path d="M19 18h2a1 1 0 0 0 1-1v-3.65a1 1 0 0 0-.22-.624l-3.48-4.35A1 1 0 0 0 17.52 8H14"/>
      <circle cx="17" cy="18" r="2"/>
      <circle cx="7" cy="18" r="2"/>
    </g>
    <circle cx="17" cy="18" r="0.9" fill="#E9B93C"/>
    <circle cx="7" cy="18" r="0.9" fill="#E9B93C"/>
  </g>
</svg>
